<?xml version="1.0" encoding="UTF-8"?>
<svg width="40px" height="30px" viewBox="0 0 40 30" version="1.1" xmlns="http://www.w3.org/2000/svg" xmlns:xlink="http://www.w3.org/1999/xlink">
    <title>Group</title>
    <g id="Page-1" stroke="none" stroke-width="1" fill="none" fill-rule="evenodd">
        <g id="Artboard" transform="translate(-17.000000, -13.000000)">
            <g id="Group" transform="translate(17.000000, 13.000000)">
                <rect id="Rectangle" fill="#000000" x="0" y="0" width="40" height="30"></rect>
                <g id="101" transform="translate(8.000000, 9.000000)" fill="#FFFFFF" fill-rule="nonzero">
                    <path d="M0.192,3.248 C0.08,3.296 0,3.248 0,3.12 L0,1.952 C0.88,1.568 1.664,0.944 2.288,0.192 L4.272,0.192 L4.272,12.576 L2.288,12.576 L2.288,2.112 L2.272,2.112 C1.664,2.592 0.88,2.992 0.192,3.248 Z" id="1"></path>
                    <path d="M8.064,6.416 C8.064,1.936 9.568,0 12.192,0 C14.816,0 16.32,1.936 16.32,6.416 C16.32,10.896 14.816,12.832 12.192,12.832 C9.568,12.832 8.064,10.896 8.064,6.416 Z M10.048,6.416 C10.048,9.808 10.848,11.248 12.192,11.248 C13.536,11.248 14.336,9.808 14.336,6.416 C14.336,3.024 13.536,1.584 12.192,1.584 C10.848,1.584 10.048,3.024 10.048,6.416 Z" id="0"></path>
                    <path d="M18.848,3.248 C18.736,3.296 18.656,3.248 18.656,3.12 L18.656,1.952 C19.536,1.568 20.32,0.944 20.944,0.192 L22.928,0.192 L22.928,12.576 L20.944,12.576 L20.944,2.112 L20.928,2.112 C20.32,2.592 19.536,2.992 18.848,3.248 Z" id="1"></path>
                </g>
            </g>
        </g>
    </g>
</svg>