<?xml version="1.0" encoding="UTF-8"?>
<svg width="150px" height="30px" viewBox="0 0 150 30" version="1.1" xmlns="http://www.w3.org/2000/svg" xmlns:xlink="http://www.w3.org/1999/xlink">
    <title>Group 2</title>
    <g id="Page-1" stroke="none" stroke-width="1" fill="none" fill-rule="evenodd">
        <g id="Artboard" transform="translate(-65.000000, -13.000000)">
            <g id="Group-2" transform="translate(65.000000, 13.000000)">
                <rect id="Rectangle-Copy-2" fill="#000000" x="0" y="0" width="150" height="30"></rect>
                <g id="CREATOR-CENTER" transform="translate(7.000000, 9.000000)" fill="#FFFFFF" fill-rule="nonzero">
                    <path d="M9.328,9.152 C9.408,9.056 9.552,9.136 9.552,9.264 L9.552,11.296 C8.448,12.24 7.104,12.656 5.568,12.656 C2.08,12.656 0,10.224 0,6.336 C0,2.352 2.464,0 5.76,0 C7.328,0 8.464,0.288 9.456,1.168 L9.456,3.184 C9.456,3.312 9.312,3.392 9.232,3.296 C8.224,2.144 7.152,1.68 5.872,1.68 C3.712,1.68 2.096,3.248 2.096,6.272 C2.096,9.408 3.392,10.944 5.808,10.944 C7.152,10.944 8.336,10.272 9.328,9.152 Z" id="C"></path>
                    <path d="M16.608,7.328 L16.608,7.36 L19.648,12.512 L17.184,12.512 L14.768,7.712 L13.088,7.712 L13.088,12.512 L11.072,12.512 L11.072,0.144 L14.64,0.144 C17.488,0.144 19.072,1.664 19.072,3.776 C19.072,5.744 18.016,6.832 16.608,7.328 Z M17.024,3.824 C17.024,2.496 16.112,1.808 14.88,1.808 L13.072,1.808 L13.072,6.112 L14.464,6.112 C16.208,6.112 17.024,5.616 17.024,3.824 Z" id="R"></path>
                    <polygon id="E" points="28.672 12.512 20.832 12.512 20.832 0.144 28.672 0.144 28.672 1.824 22.832 1.824 22.832 4.96 28.272 4.96 28.272 6.624 22.832 6.624 22.832 10.832 28.672 10.832"></polygon>
                    <path d="M35.328,0.144 L39.456,12.512 L37.44,12.512 L36.352,9.12 L32.144,9.12 L31.04,12.512 L29.024,12.512 L33.136,0.144 L35.328,0.144 Z M34.24,1.952 L33.92,3.136 L32.544,7.52 L35.936,7.52 L34.56,3.136 L34.24,1.952 Z" id="A"></path>
                    <polygon id="T" points="45.376 12.512 43.376 12.512 43.376 1.824 39.44 1.824 39.44 0.144 49.328 0.144 49.328 1.824 45.376 1.824"></polygon>
                    <path d="M55.36,12.656 C51.936,12.656 49.952,9.904 49.952,6.352 C49.952,2.816 51.936,0 55.36,0 C58.8,0 60.8,2.816 60.8,6.352 C60.8,9.904 58.8,12.656 55.36,12.656 Z M55.36,10.96 C57.568,10.96 58.72,9.072 58.72,6.336 C58.72,3.6 57.568,1.696 55.36,1.696 C53.168,1.696 52.032,3.6 52.032,6.336 C52.032,9.072 53.168,10.96 55.36,10.96 Z" id="O"></path>
                    <path d="M68.176,7.328 L68.176,7.36 L71.216,12.512 L68.752,12.512 L66.336,7.712 L64.656,7.712 L64.656,12.512 L62.64,12.512 L62.64,0.144 L66.208,0.144 C69.056,0.144 70.64,1.664 70.64,3.776 C70.64,5.744 69.584,6.832 68.176,7.328 Z M68.592,3.824 C68.592,2.496 67.68,1.808 66.448,1.808 L64.64,1.808 L64.64,6.112 L66.032,6.112 C67.776,6.112 68.592,5.616 68.592,3.824 Z" id="R"></path>
                    <path d="M84.464,9.152 C84.544,9.056 84.688,9.136 84.688,9.264 L84.688,11.296 C83.584,12.24 82.24,12.656 80.704,12.656 C77.216,12.656 75.136,10.224 75.136,6.336 C75.136,2.352 77.6,0 80.896,0 C82.464,0 83.6,0.288 84.592,1.168 L84.592,3.184 C84.592,3.312 84.448,3.392 84.368,3.296 C83.36,2.144 82.288,1.68 81.008,1.68 C78.848,1.68 77.232,3.248 77.232,6.272 C77.232,9.408 78.528,10.944 80.944,10.944 C82.288,10.944 83.472,10.272 84.464,9.152 Z" id="C"></path>
                    <polygon id="E" points="94.048 12.512 86.208 12.512 86.208 0.144 94.048 0.144 94.048 1.824 88.208 1.824 88.208 4.96 93.648 4.96 93.648 6.624 88.208 6.624 88.208 10.832 94.048 10.832"></polygon>
                    <polygon id="N" points="102.336 8.784 102.784 10.16 102.768 8.784 102.768 0.144 104.672 0.144 104.672 12.512 102.016 12.512 98.08 3.872 97.632 2.496 97.648 3.872 97.648 12.512 95.744 12.512 95.744 0.144 98.4 0.144"></polygon>
                    <polygon id="T" points="111.808 12.512 109.808 12.512 109.808 1.824 105.872 1.824 105.872 0.144 115.76 0.144 115.76 1.824 111.808 1.824"></polygon>
                    <polygon id="E" points="124.88 12.512 117.04 12.512 117.04 0.144 124.88 0.144 124.88 1.824 119.04 1.824 119.04 4.96 124.48 4.96 124.48 6.624 119.04 6.624 119.04 10.832 124.88 10.832"></polygon>
                    <path d="M132.112,7.328 L132.112,7.36 L135.152,12.512 L132.688,12.512 L130.272,7.712 L128.592,7.712 L128.592,12.512 L126.576,12.512 L126.576,0.144 L130.144,0.144 C132.992,0.144 134.576,1.664 134.576,3.776 C134.576,5.744 133.52,6.832 132.112,7.328 Z M132.528,3.824 C132.528,2.496 131.616,1.808 130.384,1.808 L128.576,1.808 L128.576,6.112 L129.968,6.112 C131.712,6.112 132.528,5.616 132.528,3.824 Z" id="R"></path>
                </g>
            </g>
        </g>
    </g>
</svg>